<svg xmlns="http://www.w3.org/2000/svg" viewBox="0 0 512 512"><defs><style>.a{fill:#fff;}</style></defs><title>control-reset-all</title><path class="a" d="M255.59,31a224.24,224.24,0,0,0-155,62.32L68.17,60.91C54.45,47.2,31,56.91,31,76.31V197.94a21.77,21.77,0,0,0,21.77,21.77H174.4c19.4,0,29.11-23.45,15.4-37.17l-37.88-37.88a151.28,151.28,0,0,1,102.73-41.07c83.83-.73,154.49,67.11,153.76,153.72-.68,82.17-67.29,151.11-152.41,151.11a151.32,151.32,0,0,1-100.37-37.7,10.86,10.86,0,0,0-14.85.5l-36,36a10.91,10.91,0,0,0,.43,15.82A224.17,224.17,0,0,0,256,481c124.26,0,225-100.74,225-225S379.71,30.78,255.59,31Z"/></svg>