<svg xmlns="http://www.w3.org/2000/svg" viewBox="0 0 512 512"><defs><style>.a{fill:#666;}</style></defs><title>nav-menu</title><path class="a" d="M19.25,114.86h473.5A18.22,18.22,0,0,0,511,96.65V51.12A18.22,18.22,0,0,0,492.75,32.9H19.25A18.22,18.22,0,0,0,1,51.12V96.65A18.22,18.22,0,0,0,19.25,114.86Zm0,182.12h473.5A18.22,18.22,0,0,0,511,278.76V233.24A18.22,18.22,0,0,0,492.75,215H19.25A18.22,18.22,0,0,0,1,233.24v45.52A18.22,18.22,0,0,0,19.25,297Zm0,182.12h473.5A18.22,18.22,0,0,0,511,460.88V415.35a18.22,18.22,0,0,0-18.22-18.21H19.25A18.22,18.22,0,0,0,1,415.35v45.53A18.22,18.22,0,0,0,19.25,479.1Z"/></svg>